<?xml version="1.0" encoding="UTF-8" standalone="no"?>
<!-- Created with Inkscape (http://www.inkscape.org/) -->

<svg
   xmlns:dc="http://purl.org/dc/elements/1.1/"
   xmlns:cc="http://creativecommons.org/ns#"
   xmlns:rdf="http://www.w3.org/1999/02/22-rdf-syntax-ns#"
   xmlns:svg="http://www.w3.org/2000/svg"
   xmlns="http://www.w3.org/2000/svg"
   version="1.2"
   width="744.09448"
   height="1052.3622"
   id="svg2">
  <defs
     id="defs4" />
  <metadata
     id="metadata7">
    <rdf:RDF>
      <cc:Work
         rdf:about="">
        <dc:format>image/svg+xml</dc:format>
        <dc:type
           rdf:resource="http://purl.org/dc/dcmitype/StillImage" />
        <dc:title></dc:title>
      </cc:Work>
    </rdf:RDF>
  </metadata>
  <g
     id="layer1">
    <g
       transform="matrix(1.1985291,-1.7189589,1.1178143,1.6031957,-358.07748,687.28262)"
       id="flowRoot2985"
       style="font-size:40px;font-style:normal;font-weight:normal;line-height:125%;letter-spacing:0px;word-spacing:0px;fill:#cccccc;fill-opacity:1;stroke:none;font-family:Sans">
      <path
         d="m 116.125,223.90071 38.03906,0 c 8.57807,1e-4 15.11713,0.65635 19.61719,1.96875 6.0468,1.78134 11.22648,4.9454 15.53906,9.49218 4.31241,4.54697 7.59366,10.11337 9.84375,16.69922 2.24991,6.58601 3.37491,14.70709 3.375,24.36328 -9e-5,8.48442 -1.05478,15.79691 -3.16406,21.9375 -2.57822,7.50002 -6.2579,13.57033 -11.03906,18.21094 -3.60946,3.51563 -8.48445,6.25782 -14.625,8.22656 -4.59382,1.45313 -10.73443,2.17969 -18.42188,2.17969 l -39.16406,0 z m 20.8125,17.4375 0,68.27343 15.53906,0 c 5.81245,2e-5 10.00776,-0.3281 12.58594,-0.98437 3.37494,-0.84373 6.17572,-2.27342 8.40234,-4.28906 2.2265,-2.0156 4.0429,-5.33201 5.44922,-9.94922 1.40618,-4.61715 2.1093,-10.91012 2.10938,-18.87891 -8e-5,-7.96869 -0.7032,-14.08587 -2.10938,-18.35156 -1.40632,-4.26555 -3.37507,-7.59367 -5.90625,-9.98438 -2.53131,-2.39054 -5.74225,-4.00773 -9.63281,-4.85156 -2.9063,-0.65616 -8.60161,-0.98429 -17.08594,-0.98437 z"
         id="path2994"
         style="font-size:144px;font-variant:normal;font-weight:bold;font-stretch:normal;fill:#cccccc;font-family:Arial;-inkscape-font-specification:Arial Bold" />
      <path
         d="m 220.32812,326.97883 0,-103.07812 43.80469,0 c 11.01556,1e-4 19.01946,0.92588 24.01172,2.77734 4.99211,1.85166 8.9882,5.14463 11.98828,9.87891 2.99991,4.73446 4.49991,10.14851 4.5,16.24218 -9e-5,7.73444 -2.27353,14.12116 -6.82031,19.16016 -4.54696,5.03911 -11.34383,8.21489 -20.39063,9.52734 4.49993,2.62505 8.21477,5.50786 11.14454,8.64844 2.9296,3.14066 6.87882,8.71878 11.84765,16.73438 L 313,326.97883 l -24.89063,0 -15.04687,-22.42969 c -5.34381,-8.01559 -9.00005,-13.06637 -10.96875,-15.15234 -1.9688,-2.0859 -4.05474,-3.51558 -6.25781,-4.28906 -2.20317,-0.7734 -5.69536,-1.16012 -10.47657,-1.16016 l -4.21875,0 0,43.03125 z m 20.8125,-59.48437 15.39844,0 c 9.98432,6e-5 16.21869,-0.42182 18.70313,-1.26563 2.4843,-0.84369 4.42962,-2.29681 5.83593,-4.35937 1.40618,-2.06244 2.10931,-4.64056 2.10938,-7.73438 -7e-5,-3.46867 -0.92585,-6.26945 -2.77734,-8.40234 -1.85164,-2.13273 -4.46491,-3.48039 -7.83985,-4.04297 -1.68756,-0.23429 -6.75005,-0.35148 -15.1875,-0.35156 l -16.24219,0 z"
         id="path2996"
         style="font-size:144px;font-variant:normal;font-weight:bold;font-stretch:normal;fill:#cccccc;font-family:Arial;-inkscape-font-specification:Arial Bold" />
      <path
         d="m 417.27344,326.97883 -22.64063,0 -9,-23.41406 -41.20312,0 -8.50782,23.41406 -22.07812,0 40.14844,-103.07812 22.00781,0 z m -38.32032,-40.78125 -14.20312,-38.25 -13.92188,38.25 z"
         id="path2998"
         style="font-size:144px;font-variant:normal;font-weight:bold;font-stretch:normal;fill:#cccccc;font-family:Arial;-inkscape-font-specification:Arial Bold" />
      <path
         d="m 428.52344,326.97883 0,-103.07812 70.66406,0 0,17.4375 -49.85156,0 0,24.39843 43.03125,0 0,17.4375 -43.03125,0 0,43.80469 z"
         id="path3000"
         style="font-size:144px;font-variant:normal;font-weight:bold;font-stretch:normal;fill:#cccccc;font-family:Arial;-inkscape-font-specification:Arial Bold" />
      <path
         d="m 539.61719,326.97883 0,-85.64062 -30.58594,0 0,-17.4375 81.91406,0 0,17.4375 -30.51562,0 0,85.64062 z"
         id="path3002"
         style="font-size:144px;font-variant:normal;font-weight:bold;font-stretch:normal;fill:#cccccc;font-family:Arial;-inkscape-font-specification:Arial Bold" />
    </g>
  </g>
</svg>
